<svg xmlns="http://www.w3.org/2000/svg" width="701" height="224" fill="none"><g fill="#fff" clip-path="url(#a)"><path fill-rule="evenodd" d="M29.485 144.113a4.837 4.837 0 0 1-5.247 4.333 4.84 4.84 0 0 1-4.377-5.26l4.733.431c-4.733-.431-4.732-.436-4.732-.436v-.005l.001-.011.003-.024.006-.057.017-.155c.015-.12.036-.274.065-.462.059-.376.15-.886.293-1.525.286-1.278.773-3.07 1.6-5.335 1.657-4.534 4.666-10.943 10.118-18.923 5.306-7.767 9.035-12.549 11.488-15.434 1.228-1.444 2.146-2.423 2.792-3.07.324-.324.58-.566.777-.744a11.735 11.735 0 0 1 .343-.298l.038-.032.018-.014.008-.007.004-.003s.004-.003 3.023 3.778l-3.02-3.78a4.829 4.829 0 0 1 6.795.755 4.846 4.846 0 0 1-.693 6.754l-.034.031c-.065.059-.205.188-.423.407-.436.437-1.18 1.223-2.268 2.502-2.18 2.562-5.702 7.059-10.869 14.623-5.022 7.351-7.652 13.045-9.017 16.782-.683 1.869-1.052 3.255-1.244 4.12a14.38 14.38 0 0 0-.198 1.059Z" clip-rule="evenodd"/><path fill-rule="evenodd" d="M108.878 62.742c-9.61-1.18-19.76-.533-29.904 1.914l-1.565 8.468a4.844 4.844 0 0 1-1.516 8.2l-.384 2.073 3.58 4.558a3.228 3.228 0 0 1 .195 6.334 7.526 7.526 0 0 0-.262.077c-.255.08-.671.221-1.236.447-1.088.436-2.73 1.19-4.838 2.435l-3.922 21.211c10.322-6.799 22.476-8.108 31.612-3.678l8.24-52.039Zm-5.431 53.649 8.427-53.219c14.337 2.361 27.31 8.9 37.033 19.716 26.796 29.804 18.764 80.797-17.939 113.895-36.704 33.099-88.18 35.768-114.976 5.964-26.796-29.805-18.764-80.798 17.94-113.896 12.71-11.463 27.194-19.276 41.81-23.355l-1.192 6.448a4.858 4.858 0 0 0-.85.02l.318 2.858c-.318-2.858-.32-2.858-.323-2.858l-.006.001-.014.002-.031.003-.078.01-.22.031c-.174.027-.403.065-.686.119-.564.109-1.34.281-2.31.553-1.94.542-4.65 1.477-7.99 3.073-6.686 3.195-15.838 9.013-26.362 19.554-6.347 6.358-12.096 15.195-16.176 22.213a195.51 195.51 0 0 0-4.92 9.006 158.885 158.885 0 0 0-1.72 3.462l-.097.201-.026.056-.01.023a4.846 4.846 0 0 0 2.323 6.44 4.831 4.831 0 0 0 6.429-2.327l.004-.008.018-.039.08-.167a145.734 145.734 0 0 1 1.601-3.221 185.088 185.088 0 0 1 4.673-8.554c3.97-6.828 9.216-14.788 14.658-20.239l.453-.452 5.942 7.566c-4.049 4.569-7.783 10.402-10.477 15.018a154.772 154.772 0 0 0-3.286 5.925 121.282 121.282 0 0 0-1.152 2.247l-.064.13-.018.035-.006.013s-.001.002 2.894 1.419l-2.895-1.417a3.23 3.23 0 0 0 1.48 4.317 3.221 3.221 0 0 0 4.31-1.483l.004-.006.012-.026.055-.11.221-.441c.196-.389.487-.958.862-1.67.75-1.426 1.83-3.418 3.147-5.676 2.658-4.553 6.195-10.034 9.868-14.142 5.938-6.639 11.155-11.027 15.27-13.9l-3.992 21.588c-.48.394-.952.802-1.419 1.222-13.945 12.556-17.01 31.914-6.845 43.239 10.165 11.324 29.71 10.325 43.656-2.23 13.945-12.556 17.01-31.915 6.845-43.239a22.677 22.677 0 0 0-4.253-3.692Zm-90.398 13.88s-.001.001 4.375 2.057l-4.375-2.057Zm65.064-41.108.444 1.927-.444-1.927Zm53.668 46.194v.003l-.004.027-.007.046a18.763 18.763 0 0 1-.104.604c-.088.469-.234 1.17-.462 2.071-.456 1.802-1.24 4.405-2.544 7.558-2.605 6.299-7.285 14.797-15.582 23.509-8.442 7.954-15.406 12.294-20.214 14.641-2.407 1.175-4.278 1.852-5.527 2.232-.624.19-1.094.306-1.398.374a9.367 9.367 0 0 1-.33.067l-.042.007-.028.005-.005.001h-.003l-.002.001a1.515 1.515 0 0 0 .433 2.999l-.214-1.5.215 1.5.003-.001h.005l.013-.002.038-.007.126-.021c.106-.019.254-.048.444-.09.38-.084.925-.22 1.626-.434 1.4-.426 3.42-1.162 5.972-2.407 5.105-2.492 12.329-7.019 20.992-15.186l.057-.057c8.605-9.029 13.485-17.867 16.216-24.471 1.365-3.301 2.193-6.044 2.682-7.974.244-.965.403-1.727.503-2.254.049-.263.084-.468.106-.611l.026-.166.006-.047.002-.014.001-.007-1.5-.198 1.5.197a1.514 1.514 0 1 0-3-.395Zm16.209-1.303a1.513 1.513 0 0 0-1.705 1.293v.001l-.002.008-.006.041-.028.18c-.027.164-.07.412-.133.74a50.621 50.621 0 0 1-.651 2.868c-.636 2.482-1.717 6.038-3.487 10.289-3.542 8.503-9.842 19.783-20.871 30.83-10.04 10.056-18.604 15.443-24.607 18.312-3.002 1.434-5.369 2.241-6.964 2.688-.797.223-1.403.356-1.799.432a11.834 11.834 0 0 1-.532.089l-.013.002h-.002a1.515 1.515 0 0 0 .336 3.012l-.167-1.506c.167 1.506.168 1.506.17 1.506l.001-.001h.006l.015-.002.046-.006.156-.022c.13-.02.316-.05.554-.096a25.802 25.802 0 0 0 2.043-.49c1.76-.492 4.29-1.36 7.453-2.872 6.329-3.024 15.173-8.616 25.444-18.903 11.354-11.374 17.857-23.004 21.523-31.806 1.833-4.401 2.957-8.097 3.625-10.703a52.01 52.01 0 0 0 .691-3.046c.069-.356.117-.632.148-.823l.035-.22.009-.06.003-.018.001-.007c0-.001 0-.002-1.499-.209l1.499.207a1.515 1.515 0 0 0-1.292-1.708Z" clip-rule="evenodd"/><path d="M97.704 133.314c-1.26 7.593-1.757 13.255-4.286 16.684-2.53 3.43-5.994 4.922-11.378 4.922-2.994 0-8.667.002-12.828-4.164-4.16-4.167-4.16-9.47-2.932-17.442l18.154-98.185c0-1.274-.097-2.548-.292-3.822-.194-1.371-.551-2.547-1.07-3.527-.519-1.078-1.232-1.96-2.14-2.646-.908-.686-2.076-1.029-3.503-1.029-1.297 0-2.561.392-3.794 1.176a22.663 22.663 0 0 0-3.405 2.646 42.372 42.372 0 0 0-3.502 3.674l-2.432-4.85c7.977-9.505 15.209-16.315 21.695-20.43C92.54 2.106 98.67 0 104.378 0c3.372 0 6.129 1.519 8.269 4.556 2.14 2.94 3.211 7.644 3.211 14.11L97.704 133.315Z"/></g><path fill="#fff" d="M310.498 46.638c4.702 0 8.781.726 12.239 2.178 3.526 1.383 6.188 3.32 7.986 5.808 1.867 2.42 2.801 5.221 2.801 8.402 0 1.797-.242 3.457-.726 4.978-2.006 6.984-7.779 11.41-17.322 13.276 3.319.969 5.947 2.594 7.883 4.875 1.936 2.213 2.904 4.979 2.904 8.298 0 1.521-.276 3.319-.829 5.393-1.522 5.394-4.599 9.404-9.232 12.032-4.563 2.558-11.063 3.838-19.499 3.838h-43.148c-1.452 0-2.558-.242-3.319-.726-.829-.484-1.244-1.141-1.244-1.971 0-.415.103-.864.311-1.349.276-.76.726-1.348 1.348-1.763.623-.415 1.003-.657 1.141-.726 1.107-.691 2.005-1.383 2.697-2.074.691-.761 1.279-1.971 1.763-3.63l12.654-44.704a8.794 8.794 0 0 0 .415-2.593c0-.76-.138-1.383-.415-1.867-.207-.553-.519-1.175-.933-1.867-.623-.899-.934-1.625-.934-2.178 0-.207.069-.588.208-1.14.276-.9.864-1.522 1.763-1.868.968-.415 2.42-.622 4.356-.622h37.132Zm-4.668 18.98c.484-1.52.726-2.938.726-4.252 0-3.595-2.039-5.393-6.119-5.393h-4.667l-5.498 19.395h4.564c2.904 0 5.186-.691 6.846-2.074 1.728-1.452 3.111-4.01 4.148-7.675Zm-7.571 30.495c.484-1.66.726-3.181.726-4.564 0-3.734-2.144-5.601-6.431-5.601h-5.186l-5.912 20.433h5.29c2.973 0 5.359-.726 7.157-2.178 1.797-1.522 3.249-4.218 4.356-8.09Zm93.681 7.364a9.11 9.11 0 0 0-.415 2.696c0 .761.104 1.418.311 1.971.208.484.415.899.623 1.245.276.276.449.484.518.622.692.691 1.037 1.383 1.037 2.074 0 .139-.069.484-.207 1.038-.277.968-.899 1.659-1.867 2.074-.899.346-2.316.519-4.252.519h-24.582c-1.452 0-2.593-.242-3.423-.726-.761-.484-1.141-1.141-1.141-1.971 0-.415.104-.864.311-1.349.208-.553.484-.968.83-1.244.415-.346.968-.726 1.66-1.141 1.106-.622 2.005-1.314 2.696-2.074.692-.761 1.28-2.006 1.764-3.734l2.696-8.92h-16.18l-2.801 5.912c-1.175 2.558-1.763 4.563-1.763 6.015 0 .83.139 1.522.415 2.075.277.484.692 1.003 1.245 1.556.484.553.795 1.037.933 1.452.208.346.242.83.104 1.452-.277 1.037-.864 1.763-1.763 2.178-.83.346-2.178.519-4.045.519h-15.455c-1.59 0-2.8-.277-3.63-.83-.83-.623-1.245-1.418-1.245-2.386 0-1.106.415-1.97 1.245-2.593.761-.691 1.936-1.417 3.527-2.178 2.074-1.037 3.734-2.04 4.978-3.008 1.245-1.037 2.317-2.454 3.215-4.252l18.463-38.273c2.835-5.947 6.154-10.234 9.957-12.861 3.872-2.697 8.954-4.045 15.247-4.045 7.053 0 12.515 1.452 16.387 4.356 3.873 2.835 5.809 6.81 5.809 11.928 0 2.143-.346 4.356-1.037 6.638l-10.165 35.265Zm-20.329-19.292 5.497-18.255c.277-.83.415-1.694.415-2.593 0-1.314-.38-2.282-1.141-2.904-.691-.692-1.694-1.038-3.008-1.038-1.659 0-3.077.484-4.252 1.453-1.176.968-2.351 2.696-3.527 5.186l-8.505 18.15h14.521Zm109.163-37.547c2.835 0 4.252.899 4.252 2.697 0 .484-.034.83-.103 1.037-.208.691-.519 1.245-.934 1.66-.415.345-1.002.76-1.763 1.244-1.037.622-1.902 1.314-2.593 2.074-.691.761-1.279 1.936-1.763 3.527l-12.862 46.052c-1.175 4.148-2.662 7.053-4.46 8.712-1.728 1.66-4.148 2.489-7.26 2.489-2.766 0-5.082-.795-6.949-2.385-1.798-1.66-3.492-4.183-5.082-7.572L425.595 73.19l-8.713 30.287c-.207.899-.311 1.694-.311 2.385 0 .899.138 1.66.415 2.282.346.553.795 1.141 1.348 1.763.761.899 1.141 1.66 1.141 2.282 0 .415-.034.726-.103.934-.277.968-.899 1.659-1.867 2.074-.968.346-2.421.519-4.357.519h-11.305c-2.835 0-4.253-.899-4.253-2.697 0-.484.035-.83.104-1.037.208-.692.519-1.21.934-1.556.414-.415 1.002-.864 1.763-1.349 1.037-.622 1.901-1.313 2.593-2.074.691-.761 1.279-1.936 1.763-3.526l13.172-46.57-1.659-3.423c-.691-1.384-1.037-2.593-1.037-3.63 0-2.144 1.383-3.216 4.149-3.216h15.35c2.213 0 3.872.519 4.979 1.556 1.175.968 2.42 2.731 3.734 5.29l15.143 30.39 7.156-24.997c.208-.968.312-1.763.312-2.386 0-.899-.173-1.625-.519-2.178-.277-.622-.691-1.244-1.245-1.867-.76-.899-1.141-1.66-1.141-2.282 0-.415.035-.726.104-.933.277-.968.899-1.625 1.867-1.97.968-.416 2.42-.623 4.356-.623h11.306Zm47.383 0c10.372 0 18.186 2.005 23.441 6.016 5.255 3.941 7.883 9.75 7.883 17.425 0 3.803-.692 8.194-2.075 13.172-2.282 8.021-5.359 14.383-9.231 19.085-3.872 4.702-8.989 8.124-15.351 10.268-6.292 2.144-14.382 3.181-24.27 3.112l-28.212-.104c-1.452 0-2.558-.242-3.319-.726-.83-.484-1.245-1.141-1.245-1.971 0-.415.104-.864.312-1.348.207-.623.518-1.072.933-1.349.346-.276.899-.656 1.66-1.141 1.106-.622 1.97-1.313 2.593-2.074.691-.761 1.279-1.971 1.763-3.63l12.654-44.6a8.824 8.824 0 0 0 .414-2.593c0-.76-.138-1.383-.414-1.867-.208-.553-.519-1.175-.934-1.867-.622-.899-.933-1.625-.933-2.178 0-.207.069-.588.207-1.14.277-.9.864-1.522 1.763-1.868.968-.415 2.42-.622 4.357-.622h28.004Zm2.697 34.331c1.798-6.5 2.696-11.616 2.696-15.35 0-3.665-.76-6.189-2.281-7.572-1.522-1.383-3.7-2.074-6.535-2.074h-2.282L508.45 106.38h2.489c3.181 0 5.843-.657 7.987-1.971 2.213-1.383 4.252-3.872 6.119-7.468 1.867-3.665 3.803-8.989 5.809-15.973Zm85.948 22.508a9.142 9.142 0 0 0-.415 2.696c0 .761.104 1.418.311 1.971.208.484.415.899.623 1.245.276.276.449.484.518.622.692.691 1.038 1.383 1.038 2.074 0 .139-.07.484-.208 1.038-.277.968-.899 1.659-1.867 2.074-.899.346-2.316.519-4.252.519h-24.582c-1.452 0-2.593-.242-3.423-.726-.76-.484-1.141-1.141-1.141-1.971 0-.415.104-.864.311-1.349.208-.553.484-.968.83-1.244.415-.346.968-.726 1.66-1.141 1.106-.622 2.005-1.314 2.696-2.074.692-.761 1.28-2.006 1.764-3.734l2.696-8.92h-16.18l-2.8 5.912c-1.176 2.558-1.764 4.563-1.764 6.015 0 .83.139 1.522.415 2.075.277.484.692 1.003 1.245 1.556.484.553.795 1.037.933 1.452.208.346.242.83.104 1.452-.277 1.037-.864 1.763-1.763 2.178-.83.346-2.178.519-4.045.519h-15.455c-1.59 0-2.8-.277-3.63-.83-.83-.623-1.244-1.418-1.244-2.386 0-1.106.414-1.97 1.244-2.593.761-.691 1.936-1.417 3.527-2.178 2.074-1.037 3.734-2.04 4.978-3.008 1.245-1.037 2.317-2.454 3.216-4.252l18.462-38.273c2.835-5.947 6.154-10.234 9.957-12.861 3.872-2.697 8.954-4.045 15.247-4.045 7.053 0 12.515 1.452 16.388 4.356 3.872 2.835 5.808 6.81 5.808 11.928 0 2.143-.346 4.356-1.037 6.638l-10.165 35.265Zm-20.329-19.292 5.497-18.255c.277-.83.415-1.694.415-2.593 0-1.314-.38-2.282-1.141-2.904-.691-.692-1.694-1.038-3.008-1.038-1.659 0-3.077.484-4.252 1.453-1.176.968-2.351 2.696-3.527 5.186l-8.505 18.15h14.521Zm68.169-38.17c3.872 0 7.434.485 10.683 1.453 3.319.899 6.673 2.35 10.061 4.356l2.386-1.97c1.659-1.315 3.008-2.213 4.045-2.697 1.106-.484 2.351-.726 3.734-.726 1.659 0 2.973.38 3.941 1.14.968.692 1.452 1.73 1.452 3.112 0 .553-.103 1.141-.311 1.763l-4.356 14.314c-.484 1.66-1.106 2.835-1.867 3.526-.692.692-1.763 1.037-3.215 1.037-1.522 0-2.87-.45-4.045-1.348-1.107-.968-2.87-2.904-5.29-5.808-2.42-2.766-4.633-4.702-6.638-5.809-1.936-1.175-3.942-1.763-6.016-1.763-1.521 0-2.801.519-3.838 1.556-1.037.968-1.556 2.178-1.556 3.63 0 1.66.83 3.215 2.49 4.667 1.659 1.383 4.252 3.147 7.779 5.29 3.595 2.144 6.569 4.08 8.92 5.809 2.351 1.728 4.356 3.872 6.015 6.43 1.66 2.559 2.49 5.497 2.49 8.816 0 2.144-.346 4.287-1.037 6.431-1.66 5.532-4.875 9.75-9.646 12.654-4.772 2.835-10.338 4.252-16.699 4.252-4.771 0-8.782-.553-12.032-1.659-3.25-1.106-6.569-2.973-9.957-5.601l-3.734 3.112c-1.729 1.452-3.146 2.454-4.252 3.008-1.107.484-2.351.726-3.734.726-1.591 0-2.87-.381-3.838-1.141-.899-.761-1.348-1.798-1.348-3.112 0-.691.138-1.417.414-2.178l5.083-15.454c.553-1.798 1.314-3.077 2.282-3.838.968-.76 2.212-1.14 3.734-1.14 1.59 0 3.007.552 4.252 1.659 1.314 1.106 3.008 3.111 5.082 6.015 2.213 3.181 4.253 5.394 6.12 6.638 1.936 1.245 4.218 1.867 6.845 1.867 1.867 0 3.285-.276 4.253-.829 1.037-.623 1.763-1.591 2.178-2.905.138-.345.207-.864.207-1.555 0-1.66-.795-3.181-2.385-4.564-1.591-1.383-4.045-3.043-7.364-4.979-3.527-2.143-6.396-4.045-8.609-5.704-2.213-1.729-4.149-3.872-5.808-6.43-1.591-2.56-2.386-5.567-2.386-9.025 0-2.42.38-4.805 1.141-7.156 1.452-4.771 4.425-8.609 8.92-11.513 4.494-2.904 9.646-4.356 15.454-4.356ZM287.76 143.25c1.628-.313 2.974-.47 4.039-.47 1.315 0 2.348.376 3.1 1.127.751.752 1.127 1.91 1.127 3.476 0 1.002-.188 2.223-.564 3.663l-12.305 43.117c-.125.313-.188.782-.188 1.409 0 .876.25 1.565.751 2.066.501.501 1.253 1.033 2.255 1.597.939.564 1.597 1.033 1.972 1.409.376.376.564.908.564 1.597 0 .438-.031.751-.094.939-.313.94-1.002 1.597-2.066 1.973-1.002.376-2.662.564-4.979.564h-28.274c-1.316 0-2.286-.251-2.912-.752-.627-.501-.94-1.19-.94-2.066 0-.376.031-.658.094-.846a2.91 2.91 0 0 1 1.409-1.691c.626-.438 1.597-.908 2.912-1.409 1.628-.563 2.912-1.19 3.851-1.878 1.002-.689 1.691-1.723 2.067-3.1l9.769-34.569c.126-.375.188-.845.188-1.409 0-.939-.282-1.722-.845-2.348-.564-.689-1.347-1.346-2.349-1.973-.939-.688-1.628-1.252-2.066-1.69a2.619 2.619 0 0 1-.658-1.785c0-.251.063-.564.188-.94.125-.688.501-1.221 1.127-1.596.627-.376 1.629-.689 3.006-.94l19.821-3.475Zm82.601 51.382a8.25 8.25 0 0 0-.376 2.443c0 .688.094 1.283.282 1.784.188.439.376.814.564 1.128.25.25.407.438.469.563.627.626.94 1.253.94 1.879 0 .125-.063.438-.188.939-.251.877-.814 1.503-1.691 1.879-.814.313-2.098.47-3.851.47h-22.263c-1.315 0-2.348-.22-3.1-.658-.689-.438-1.033-1.033-1.033-1.785 0-.375.094-.783.282-1.221.188-.501.438-.877.751-1.127.376-.313.877-.658 1.503-1.033 1.002-.564 1.816-1.19 2.442-1.879.627-.689 1.159-1.816 1.597-3.382l2.443-8.078h-14.654l-2.537 5.354c-1.064 2.317-1.596 4.133-1.596 5.448 0 .752.125 1.378.375 1.879.251.438.627.908 1.128 1.409.438.501.72.939.845 1.315.188.313.219.752.094 1.315-.251.94-.783 1.597-1.597 1.973-.751.313-1.973.47-3.663.47H313.53c-1.44 0-2.536-.251-3.288-.752-.751-.564-1.127-1.284-1.127-2.16 0-1.002.376-1.785 1.127-2.349.689-.626 1.754-1.284 3.194-1.972 1.879-.94 3.382-1.848 4.509-2.725 1.127-.939 2.098-2.223 2.912-3.851l16.721-34.662c2.567-5.386 5.573-9.268 9.017-11.648 3.507-2.442 8.11-3.663 13.809-3.663 6.387 0 11.335 1.315 14.842 3.945 3.507 2.567 5.26 6.168 5.26 10.802 0 1.942-.313 3.946-.939 6.012l-9.206 31.938Zm-18.411-17.472 4.978-16.532a7.37 7.37 0 0 0 .376-2.349c0-1.19-.344-2.066-1.033-2.63-.627-.626-1.535-.939-2.724-.939-1.503 0-2.787.438-3.852 1.315-1.064.877-2.129 2.442-3.194 4.697l-7.702 16.438h13.151Zm16.063-49.598c1.503-2.63 3.037-4.54 4.602-5.73 1.629-1.189 3.57-1.784 5.824-1.784 1.942 0 3.476.532 4.603 1.597 1.127 1.001 1.691 2.379 1.691 4.133 0 1.878-.626 3.507-1.879 4.884-1.252 1.378-3.287 2.756-6.105 4.133l-8.173 3.946c-1.19.501-2.192.751-3.006.751-.751 0-1.377-.188-1.878-.563-.439-.376-.658-.94-.658-1.691 0-.814.313-1.754.939-2.818l4.04-6.858Zm64.368 53.919c1.753 0 3.069.376 3.945 1.128.94.688 1.409 1.69 1.409 3.005 0 .564-.094 1.19-.281 1.879l-3.1 10.991c-.814 2.692-1.973 4.571-3.476 5.636-1.44 1.064-3.601 1.597-6.481 1.597h-44.15c-1.315 0-2.317-.22-3.006-.658-.751-.438-1.127-1.033-1.127-1.785 0-.375.094-.783.282-1.221a2.58 2.58 0 0 1 .939-1.221c.438-.376.908-.72 1.409-1.033 1.002-.627 1.816-1.253 2.442-1.879.627-.689 1.159-1.785 1.597-3.288l11.46-40.486a7.96 7.96 0 0 0 .376-2.348c0-.689-.125-1.253-.376-1.691a10.565 10.565 0 0 0-.845-1.691c-.564-.814-.846-1.472-.846-1.973 0-.187.063-.532.188-1.033.251-.814.783-1.378 1.597-1.691.877-.375 2.192-.563 3.946-.563h22.074c1.315 0 2.317.219 3.006.657.752.376 1.127.94 1.127 1.691 0 .313-.093.72-.281 1.221-.188.439-.47.846-.846 1.221a4.912 4.912 0 0 1-.939.752c-.251.125-.438.25-.564.376-1.002.563-1.816 1.189-2.442 1.878-.626.689-1.159 1.754-1.597 3.194l-12.118 42.553h5.824c1.441 0 2.662-.251 3.664-.752 1.064-.501 2.16-1.44 3.288-2.818l6.481-7.702c1.19-1.378 2.317-2.38 3.382-3.006 1.127-.627 2.473-.94 4.039-.94Zm60.623-38.325c4.258 0 7.953.657 11.084 1.972 3.194 1.253 5.605 3.006 7.233 5.261 1.691 2.192 2.536 4.728 2.536 7.608 0 1.629-.219 3.132-.657 4.509-1.816 6.325-7.045 10.333-15.687 12.024 3.006.877 5.385 2.348 7.139 4.415 1.753 2.004 2.63 4.509 2.63 7.515 0 1.378-.251 3.006-.752 4.884-1.377 4.885-4.164 8.517-8.36 10.897-4.133 2.317-10.02 3.476-17.66 3.476h-39.077c-1.315 0-2.317-.22-3.006-.658-.751-.438-1.127-1.033-1.127-1.785 0-.375.094-.783.282-1.221.25-.689.657-1.221 1.221-1.597.564-.376.908-.595 1.033-.657 1.002-.627 1.816-1.253 2.443-1.879.626-.689 1.158-1.785 1.597-3.288l11.46-40.486a7.99 7.99 0 0 0 .375-2.348c0-.689-.125-1.253-.375-1.691-.188-.501-.47-1.065-.846-1.691-.563-.814-.845-1.472-.845-1.973 0-.187.062-.532.188-1.033.25-.814.783-1.378 1.597-1.691.876-.375 2.191-.563 3.945-.563h33.629Zm-4.227 17.19c.438-1.378.657-2.662.657-3.851 0-3.257-1.847-4.885-5.542-4.885h-4.227l-4.979 17.566h4.134c2.63 0 4.696-.626 6.199-1.879 1.566-1.315 2.818-3.632 3.758-6.951Zm-6.858 27.617c.439-1.503.658-2.881.658-4.133 0-3.382-1.941-5.073-5.824-5.073h-4.697l-5.354 18.505h4.791c2.692 0 4.853-.657 6.481-1.972 1.628-1.378 2.943-3.82 3.945-7.327Zm83.835-32.126c1.19-4.321 2.849-7.577 4.978-9.769 2.192-2.192 5.198-3.288 9.018-3.288 3.006 0 5.417.971 7.233 2.912 1.816 1.879 2.724 4.227 2.724 7.045 0 .939-.156 2.035-.47 3.288-.688 2.755-1.91 4.759-3.663 6.012-1.753 1.19-3.663 1.784-5.73 1.784a20.73 20.73 0 0 1-2.912-.187 25.53 25.53 0 0 1-2.348-.658l-5.543 20.384c-2.004 7.452-5.354 13.151-10.051 17.096-4.696 3.883-11.084 5.824-19.162 5.824-7.39 0-13.151-1.409-17.285-4.227-4.07-2.818-6.105-7.202-6.105-13.151 0-2.881.501-6.043 1.503-9.487l7.139-25.269a7.99 7.99 0 0 0 .375-2.348c0-.752-.125-1.347-.375-1.785-.188-.501-.47-1.065-.846-1.691-.563-.814-.845-1.472-.845-1.973 0-.25.062-.563.188-.939.25-.814.814-1.378 1.691-1.691.876-.375 2.16-.563 3.851-.563h22.075c2.693 0 4.039.814 4.039 2.442 0 .376-.031.689-.094.939a3.538 3.538 0 0 1-.845 1.409c-.314.314-.815.689-1.503 1.128-1.002.563-1.816 1.189-2.443 1.878-.626.689-1.158 1.754-1.597 3.194l-8.172 28.744c-.564 2.13-.845 3.946-.845 5.449 0 4.195 2.254 6.293 6.763 6.293 2.755 0 5.041-.877 6.857-2.63 1.879-1.816 3.445-4.885 4.697-9.206l7.703-26.959Zm114.677-12.681c1.315 0 2.317.219 3.006.657.751.376 1.127.94 1.127 1.691 0 .313-.094.72-.282 1.221-.188.564-.469 1.002-.845 1.315-.313.251-.814.595-1.503 1.034-1.002.563-1.816 1.189-2.442 1.878-.564.689-1.065 1.754-1.503 3.194l-11.46 40.392a7.961 7.961 0 0 0-.376 2.349c0 .689.094 1.283.282 1.784.25.439.563.971.939 1.597.25.313.47.658.658 1.034.187.313.281.657.281 1.033 0 .125-.062.438-.188.939-.25.814-.845 1.409-1.784 1.785-.877.376-2.161.564-3.852.564h-22.074c-1.316 0-2.349-.22-3.1-.658-.689-.438-1.034-1.033-1.034-1.785 0-.375.094-.782.282-1.221a3.56 3.56 0 0 1 .752-1.127c.375-.376.689-.626.939-.752.313-.187.532-.344.658-.469 1.002-.564 1.816-1.19 2.442-1.879.626-.689 1.158-1.753 1.597-3.194l7.139-25.362-24.329 30.153c-2.004 2.442-3.632 4.133-4.885 5.072-1.19.877-2.568 1.316-4.133 1.316-1.503 0-2.693-.47-3.57-1.409-.814-1.002-1.565-2.662-2.254-4.979l-8.83-29.026-6.951 24.329a7.961 7.961 0 0 0-.376 2.349c0 .751.094 1.377.282 1.878.25.501.595 1.034 1.033 1.597.564.814.846 1.472.846 1.973 0 .125-.063.438-.188.939-.251.877-.814 1.503-1.691 1.879-.877.313-2.192.47-3.945.47h-7.797c-1.315 0-2.348-.22-3.1-.658-.689-.438-1.033-1.033-1.033-1.785 0-.375.094-.783.282-1.221.25-.689.657-1.221 1.221-1.597.563-.376.908-.595 1.033-.657 1.002-.627 1.816-1.253 2.442-1.879.627-.689 1.159-1.785 1.597-3.288l11.46-40.58-1.503-4.978c-.313-.94-.469-1.848-.469-2.725 0-1.127.344-1.941 1.033-2.442.751-.501 1.879-.751 3.382-.751h14.56c1.878 0 3.256.407 4.133 1.221.939.814 1.691 2.223 2.254 4.227l9.394 31.186 25.456-31.656c1.628-2.004 3.225-3.319 4.791-3.945 1.565-.689 3.632-1.033 6.2-1.033h13.996Z"/><defs><clipPath id="a"><path fill="#fff" d="M0 0h164.899v223.482H0z"/></clipPath></defs></svg>